<svg width="245" height="136" viewBox="0 0 245 136" fill="none" xmlns="http://www.w3.org/2000/svg">
<rect x="35" width="35" height="35" rx="8" transform="rotate(90 35 0)" fill="white"/>
<path d="M19.4879 10.9091V24H17.1165V13.2166H17.0398L13.978 15.1726V12.9993L17.2315 10.9091H19.4879Z" fill="#FF879F"/>
<path d="M7.97727 109.239C6.60227 109.239 5.38068 109.003 4.3125 108.531C3.25 108.054 2.41477 107.398 1.80682 106.562C1.19886 105.727 0.892045 104.767 0.886364 103.682H5.65909C5.66477 104.017 5.76705 104.318 5.96591 104.585C6.17045 104.847 6.44886 105.051 6.80114 105.199C7.15341 105.347 7.55682 105.42 8.01136 105.42C8.44886 105.42 8.83523 105.344 9.17045 105.19C9.50568 105.031 9.76705 104.812 9.95455 104.534C10.142 104.256 10.233 103.937 10.2273 103.58C10.233 103.227 10.125 102.915 9.90341 102.642C9.6875 102.369 9.38352 102.156 8.99148 102.003C8.59943 101.849 8.14773 101.773 7.63636 101.773H5.86364V98.5H7.63636C8.10795 98.5 8.52273 98.4233 8.88068 98.2699C9.24432 98.1165 9.52557 97.9034 9.72443 97.6307C9.92898 97.358 10.0284 97.0455 10.0227 96.6932C10.0284 96.3523 9.94602 96.0511 9.77557 95.7898C9.60511 95.5284 9.36648 95.3239 9.05966 95.1761C8.75852 95.0284 8.40909 94.9545 8.01136 94.9545C7.57955 94.9545 7.19318 95.0312 6.85227 95.1847C6.51705 95.3381 6.25284 95.5511 6.05966 95.8239C5.86648 96.0966 5.76705 96.4091 5.76136 96.7614H1.22727C1.23295 95.6932 1.52557 94.75 2.10511 93.9318C2.69034 93.1136 3.49148 92.4716 4.50852 92.0057C5.52557 91.5398 6.69318 91.3068 8.01136 91.3068C9.30114 91.3068 10.4403 91.5256 11.429 91.9631C12.4233 92.4006 13.1989 93.0028 13.7557 93.7699C14.3182 94.5312 14.5966 95.4034 14.5909 96.3864C14.6023 97.3636 14.267 98.1648 13.5852 98.7898C12.9091 99.4148 12.0511 99.7841 11.0114 99.8977V100.034C12.4205 100.187 13.4801 100.619 14.1903 101.33C14.9006 102.034 15.25 102.92 15.2386 103.989C15.2443 105.011 14.9375 105.918 14.3182 106.707C13.7045 107.497 12.8494 108.116 11.7528 108.565C10.6619 109.014 9.40341 109.239 7.97727 109.239ZM21.8544 109H16.7408L22.5021 91.5455H28.9794L34.7408 109H29.6271L25.8089 96.3523H25.6726L21.8544 109ZM20.8999 102.114H30.5135V105.659H20.8999V102.114ZM52.4446 91.5455V109H47.7741V95.2955H41.8764V109H37.206V91.5455H52.4446ZM55.4766 91.5455H60.2152V100.682H60.3516L66.5561 91.5455H70.5788V109H65.8402V99.8295H65.7379L59.4311 109H55.4766V91.5455ZM73.9794 91.5455H78.5817V105.352H82.843V91.5455H87.4112V105.352H91.5703V91.5455H96.1385V109H73.9794V91.5455ZM99.5391 91.5455H104.278V100.682H104.414L110.619 91.5455H114.641V109H109.903V99.8295H109.8L103.494 109H99.5391V91.5455ZM116.406 95.3636V91.5455H131.576V95.3636H126.326V109H121.656V95.3636H116.406ZM133.359 109V91.5455H145.939V95.3636H138.098V98.3636H145.291V102.182H138.098V105.182H145.905V109H133.359ZM164.585 98.0909H159.778C159.744 97.6932 159.653 97.3324 159.505 97.0085C159.363 96.6847 159.164 96.4062 158.908 96.1733C158.658 95.9347 158.354 95.7528 157.996 95.6278C157.638 95.4972 157.232 95.4318 156.778 95.4318C155.982 95.4318 155.309 95.625 154.758 96.0114C154.212 96.3977 153.798 96.9517 153.513 97.6733C153.235 98.3949 153.096 99.2614 153.096 100.273C153.096 101.341 153.238 102.236 153.522 102.957C153.812 103.673 154.229 104.213 154.775 104.577C155.32 104.935 155.977 105.114 156.744 105.114C157.181 105.114 157.573 105.06 157.92 104.952C158.266 104.838 158.567 104.676 158.823 104.466C159.079 104.256 159.286 104.003 159.445 103.707C159.61 103.406 159.721 103.068 159.778 102.693L164.585 102.727C164.528 103.466 164.32 104.219 163.962 104.986C163.604 105.747 163.096 106.452 162.437 107.099C161.783 107.741 160.974 108.259 160.008 108.651C159.042 109.043 157.92 109.239 156.641 109.239C155.039 109.239 153.602 108.895 152.329 108.207C151.062 107.52 150.059 106.509 149.32 105.173C148.587 103.838 148.221 102.205 148.221 100.273C148.221 98.3295 148.596 96.6932 149.346 95.3636C150.096 94.0284 151.107 93.0199 152.38 92.3381C153.653 91.6506 155.073 91.3068 156.641 91.3068C157.744 91.3068 158.758 91.4574 159.684 91.7585C160.61 92.0597 161.423 92.5 162.121 93.0795C162.82 93.6534 163.383 94.3608 163.809 95.2017C164.235 96.0426 164.494 97.0057 164.585 98.0909ZM169.734 97.4091H173.348C174.82 97.4091 176.104 97.6449 177.2 98.1165C178.303 98.5881 179.158 99.2528 179.766 100.111C180.379 100.969 180.683 101.977 180.678 103.136C180.683 104.295 180.379 105.315 179.766 106.196C179.158 107.077 178.303 107.764 177.2 108.259C176.104 108.753 174.82 109 173.348 109H166.837V91.5455H171.575V105.284H173.348C173.922 105.284 174.402 105.19 174.788 105.003C175.18 104.815 175.476 104.557 175.675 104.227C175.879 103.898 175.979 103.523 175.973 103.102C175.979 102.506 175.757 102.011 175.308 101.619C174.859 101.222 174.206 101.023 173.348 101.023H169.734V97.4091Z" fill="white"/>
<path d="M6.62642 126.334V127.506H2.10938V126.334H6.62642ZM2.40767 122.818V131H1.15057V122.818H2.40767ZM7.58523 122.818V131H6.32812V122.818H7.58523ZM12.2887 131.192C11.7702 131.192 11.2997 131.094 10.8771 130.899C10.4545 130.7 10.119 130.414 9.87038 130.041C9.6218 129.665 9.49751 129.21 9.49751 128.678C9.49751 128.209 9.58984 127.829 9.7745 127.538C9.95916 127.243 10.206 127.012 10.5149 126.845C10.8239 126.678 11.1648 126.554 11.5376 126.472C11.9141 126.387 12.2923 126.32 12.6722 126.27C13.1694 126.206 13.5724 126.158 13.8814 126.126C14.1939 126.091 14.4212 126.032 14.5632 125.95C14.7088 125.869 14.7816 125.727 14.7816 125.524V125.482C14.7816 124.956 14.6378 124.548 14.3501 124.256C14.0661 123.965 13.6346 123.82 13.0558 123.82C12.4556 123.82 11.9851 123.951 11.6442 124.214C11.3033 124.477 11.0636 124.757 10.9251 125.055L9.73189 124.629C9.94496 124.132 10.229 123.745 10.5842 123.468C10.9428 123.187 11.3335 122.992 11.756 122.882C12.1822 122.768 12.6012 122.712 13.0131 122.712C13.2759 122.712 13.5778 122.744 13.9187 122.808C14.2631 122.868 14.5952 122.994 14.9148 123.186C15.2379 123.377 15.506 123.667 15.7191 124.054C15.9322 124.441 16.0387 124.96 16.0387 125.609V131H14.7816V129.892H14.7177C14.6325 130.07 14.4904 130.26 14.2915 130.462C14.0927 130.664 13.8281 130.837 13.4979 130.979C13.1676 131.121 12.7646 131.192 12.2887 131.192ZM12.4805 130.062C12.9776 130.062 13.3967 129.965 13.7376 129.77C14.082 129.574 14.3413 129.322 14.5153 129.013C14.6928 128.704 14.7816 128.379 14.7816 128.038V126.888C14.7283 126.952 14.6112 127.01 14.43 127.064C14.2525 127.113 14.0465 127.158 13.8121 127.197C13.5813 127.232 13.3558 127.264 13.1357 127.293C12.919 127.317 12.7433 127.339 12.6083 127.357C12.2816 127.399 11.9762 127.468 11.6921 127.564C11.4116 127.657 11.1843 127.797 11.0103 127.985C10.8398 128.17 10.7546 128.422 10.7546 128.741C10.7546 129.178 10.9162 129.509 11.2393 129.732C11.5661 129.952 11.9798 130.062 12.4805 130.062ZM22.5519 131V122.818H23.809V126.376H24.64L27.5803 122.818H29.1997L25.8971 126.76L29.2423 131H27.623L24.9383 127.548H23.809V131H22.5519ZM33.5955 131.17C32.8569 131.17 32.2088 130.995 31.6513 130.643C31.0973 130.292 30.6641 129.8 30.3516 129.168C30.0426 128.536 29.8881 127.797 29.8881 126.952C29.8881 126.099 30.0426 125.355 30.3516 124.72C30.6641 124.084 31.0973 123.591 31.6513 123.239C32.2088 122.887 32.8569 122.712 33.5955 122.712C34.3342 122.712 34.9805 122.887 35.5344 123.239C36.092 123.591 36.5252 124.084 36.8342 124.72C37.1467 125.355 37.3029 126.099 37.3029 126.952C37.3029 127.797 37.1467 128.536 36.8342 129.168C36.5252 129.8 36.092 130.292 35.5344 130.643C34.9805 130.995 34.3342 131.17 33.5955 131.17ZM33.5955 130.041C34.1566 130.041 34.6183 129.897 34.9805 129.61C35.3427 129.322 35.6108 128.944 35.7848 128.475C35.9588 128.006 36.0458 127.499 36.0458 126.952C36.0458 126.405 35.9588 125.895 35.7848 125.423C35.6108 124.951 35.3427 124.569 34.9805 124.278C34.6183 123.987 34.1566 123.841 33.5955 123.841C33.0344 123.841 32.5728 123.987 32.2106 124.278C31.8484 124.569 31.5803 124.951 31.4062 125.423C31.2322 125.895 31.1452 126.405 31.1452 126.952C31.1452 127.499 31.2322 128.006 31.4062 128.475C31.5803 128.944 31.8484 129.322 32.2106 129.61C32.5728 129.897 33.0344 130.041 33.5955 130.041ZM44.6977 126.334V127.506H40.1807V126.334H44.6977ZM40.479 122.818V131H39.2219V122.818H40.479ZM45.6565 122.818V131H44.3994V122.818H45.6565ZM51.2762 131.17C50.5091 131.17 49.8486 130.989 49.2947 130.627C48.7407 130.265 48.3145 129.766 48.0162 129.13C47.718 128.495 47.5688 127.768 47.5688 126.952C47.5688 126.121 47.7215 125.387 48.0269 124.752C48.3358 124.113 48.7655 123.614 49.316 123.255C49.8699 122.893 50.5162 122.712 51.2549 122.712C51.8302 122.712 52.3486 122.818 52.8103 123.031C53.2719 123.244 53.6501 123.543 53.9449 123.926C54.2396 124.31 54.4225 124.757 54.4935 125.268H53.2364C53.1405 124.896 52.9275 124.565 52.5972 124.278C52.2705 123.987 51.8302 123.841 51.2762 123.841C50.7861 123.841 50.3564 123.969 49.9871 124.224C49.6214 124.477 49.3355 124.833 49.1295 125.295C48.9271 125.753 48.8259 126.291 48.8259 126.909C48.8259 127.541 48.9253 128.092 49.1242 128.56C49.3266 129.029 49.6107 129.393 49.9765 129.652C50.3458 129.912 50.779 130.041 51.2762 130.041C51.6029 130.041 51.8994 129.984 52.1657 129.871C52.4321 129.757 52.6576 129.594 52.8422 129.381C53.0269 129.168 53.1583 128.912 53.2364 128.614H54.4935C54.4225 129.097 54.2467 129.532 53.9662 129.919C53.6892 130.302 53.3216 130.608 52.8635 130.835C52.409 131.059 51.8799 131.17 51.2762 131.17ZM57.1409 134.068C56.9278 134.068 56.7378 134.05 56.5709 134.015C56.404 133.983 56.2886 133.951 56.2247 133.919L56.5443 132.811C56.8497 132.889 57.1196 132.918 57.354 132.896C57.5883 132.875 57.7961 132.77 57.9772 132.582C58.1618 132.397 58.3305 132.097 58.4832 131.682L58.7176 131.043L55.692 122.818H57.0557L59.3142 129.338H59.3994L61.6579 122.818H63.0216L59.5486 132.193C59.3923 132.616 59.1988 132.966 58.968 133.243C58.7371 133.523 58.469 133.731 58.1636 133.866C57.8618 134.001 57.5209 134.068 57.1409 134.068ZM63.2679 131V129.828H63.5662C63.8113 129.828 64.0154 129.78 64.1788 129.684C64.3422 129.585 64.4735 129.413 64.573 129.168C64.676 128.919 64.7541 128.575 64.8074 128.134C64.8642 127.69 64.905 127.126 64.9299 126.44L65.079 122.818H70.5336V131H69.2765V123.99H66.2722L66.1444 126.909C66.1159 127.58 66.0556 128.172 65.9632 128.683C65.8745 129.191 65.7377 129.617 65.5531 129.961C65.372 130.306 65.1305 130.565 64.8287 130.739C64.5268 130.913 64.1486 131 63.6941 131H63.2679ZM73.9267 125.78H76.2704C77.2292 125.78 77.9625 126.023 78.4703 126.51C78.9782 126.996 79.2321 127.612 79.2321 128.358C79.2321 128.848 79.1184 129.294 78.8912 129.695C78.6639 130.093 78.3301 130.411 77.8897 130.648C77.4494 130.883 76.9096 131 76.2704 131H72.84V122.818H74.0971V129.828H76.2704C76.7676 129.828 77.176 129.697 77.4956 129.434C77.8152 129.171 77.975 128.834 77.975 128.422C77.975 127.989 77.8152 127.635 77.4956 127.362C77.176 127.088 76.7676 126.952 76.2704 126.952H73.9267V125.78ZM79.8273 123.99V122.818H86.4751V123.99H83.7904V131H82.5333V123.99H79.8273ZM90.2916 131.192C89.7732 131.192 89.3026 131.094 88.8801 130.899C88.4575 130.7 88.1219 130.414 87.8733 130.041C87.6247 129.665 87.5004 129.21 87.5004 128.678C87.5004 128.209 87.5928 127.829 87.7774 127.538C87.9621 127.243 88.2089 127.012 88.5178 126.845C88.8268 126.678 89.1677 126.554 89.5406 126.472C89.917 126.387 90.2952 126.32 90.6752 126.27C91.1723 126.206 91.5754 126.158 91.8843 126.126C92.1968 126.091 92.4241 126.032 92.5661 125.95C92.7117 125.869 92.7845 125.727 92.7845 125.524V125.482C92.7845 124.956 92.6407 124.548 92.3531 124.256C92.069 123.965 91.6375 123.82 91.0587 123.82C90.4585 123.82 89.988 123.951 89.6471 124.214C89.3062 124.477 89.0665 124.757 88.928 125.055L87.7348 124.629C87.9479 124.132 88.232 123.745 88.5871 123.468C88.9458 123.187 89.3364 122.992 89.759 122.882C90.1851 122.768 90.6041 122.712 91.0161 122.712C91.2789 122.712 91.5807 122.744 91.9216 122.808C92.2661 122.868 92.5981 122.994 92.9177 123.186C93.2409 123.377 93.509 123.667 93.722 124.054C93.9351 124.441 94.0416 124.96 94.0416 125.609V131H92.7845V129.892H92.7206C92.6354 130.07 92.4933 130.26 92.2945 130.462C92.0956 130.664 91.8311 130.837 91.5008 130.979C91.1705 131.121 90.7675 131.192 90.2916 131.192ZM90.4834 130.062C90.9806 130.062 91.3996 129.965 91.7405 129.77C92.085 129.574 92.3442 129.322 92.5182 129.013C92.6958 128.704 92.7845 128.379 92.7845 128.038V126.888C92.7313 126.952 92.6141 127.01 92.433 127.064C92.2554 127.113 92.0494 127.158 91.8151 127.197C91.5843 127.232 91.3588 127.264 91.1386 127.293C90.922 127.317 90.7462 127.339 90.6112 127.357C90.2845 127.399 89.9791 127.468 89.695 127.564C89.4145 127.657 89.1872 127.797 89.0132 127.985C88.8428 128.17 88.7575 128.422 88.7575 128.741C88.7575 129.178 88.9191 129.509 89.2423 129.732C89.569 129.952 89.9827 130.062 90.4834 130.062ZM102.771 122.818V129.828H103.921V133.642H102.664V131H96.3361V122.818H97.5932V129.828H101.514V122.818H102.771ZM107.115 129.146L111.056 122.818H112.505V131H111.248V124.672L107.328 131H105.858V122.818H107.115V129.146ZM118.728 126.398V127.57H114.403V126.398H118.728ZM115.468 122.818V131H114.211V122.818H115.468ZM121.242 131.17C120.504 131.17 119.856 130.995 119.298 130.643C118.744 130.292 118.311 129.8 117.998 129.168C117.69 128.536 117.535 127.797 117.535 126.952C117.535 126.099 117.69 125.355 117.998 124.72C118.311 124.084 118.744 123.591 119.298 123.239C119.856 122.887 120.504 122.712 121.242 122.712C121.981 122.712 122.627 122.887 123.181 123.239C123.739 123.591 124.172 124.084 124.481 124.72C124.794 125.355 124.95 126.099 124.95 126.952C124.95 127.797 124.794 128.536 124.481 129.168C124.172 129.8 123.739 130.292 123.181 130.643C122.627 130.995 121.981 131.17 121.242 131.17ZM121.242 130.041C121.804 130.041 122.265 129.897 122.627 129.61C122.99 129.322 123.258 128.944 123.432 128.475C123.606 128.006 123.693 127.499 123.693 126.952C123.693 126.405 123.606 125.895 123.432 125.423C123.258 124.951 122.99 124.569 122.627 124.278C122.265 123.987 121.804 123.841 121.242 123.841C120.681 123.841 120.22 123.987 119.858 124.278C119.495 124.569 119.227 124.951 119.053 125.423C118.879 125.895 118.792 126.405 118.792 126.952C118.792 127.499 118.879 128.006 119.053 128.475C119.227 128.944 119.495 129.322 119.858 129.61C120.22 129.897 120.681 130.041 121.242 130.041Z" fill="white"/>
</svg>
