<svg width="188" height="159" viewBox="0 0 188 159" fill="none" xmlns="http://www.w3.org/2000/svg">
<path d="M93.6197 78.0901V129.85C73.6897 118.34 56.8797 94.6201 50.7197 69.3201L93.6197 78.0901Z" fill="url(#paint0_linear_1289_804)"/>
<path d="M93.6201 129.85L97.6601 127.49L97.5901 76.3101L93.6201 78.0901V129.85Z" fill="#AFB6E5"/>
<path d="M50.7295 69.32L54.7595 66.96L97.6595 75.74L93.6195 78.09L50.7295 69.32Z" fill="#E5E9FF"/>
<path d="M131.59 80.5499C125.76 56.58 106.48 34.18 88.5202 30.51C83.1302 29.41 78.4702 30.13 74.7502 32.32L74.7302 32.28L69.5202 36.15L69.8702 36.71C64.9002 43.26 63.3902 54.1199 66.5802 67.2599L91.9502 72.45L99.0802 83.99V113.13C102.86 115.31 106.05 116.57 109.64 117.31C113.31 118.06 116.64 117.96 119.56 117.13L120.09 118C120.09 118 125.09 114.39 125.7 113.86L126.47 113.29L126.42 113.21C132.86 107.05 135.16 95.2099 131.59 80.5499Z" fill="url(#paint1_linear_1289_804)"/>
<path d="M95.06 76.9299L62.56 70.2799C56.73 46.3099 66.55 29.8599 84.5 33.5299C102.45 37.1999 121.73 59.6099 127.57 83.5699C133.4 107.54 123.58 123.99 105.63 120.32C102.04 119.59 98.84 118.32 95.07 116.14V76.9299H95.06Z" fill="url(#paint2_linear_1289_804)"/>
<defs>
<linearGradient id="paint0_linear_1289_804" x1="45.0527" y1="116.034" x2="109.47" y2="76.9613" gradientUnits="userSpaceOnUse">
<stop stop-color="#AFB6E5"/>
<stop offset="0.1449" stop-color="#B6BCE8"/>
<stop offset="0.3485" stop-color="#C8CDF1"/>
<stop offset="0.5808" stop-color="#E5E9FF"/>
<stop offset="0.8551" stop-color="#F5F6FF"/>
<stop offset="1" stop-color="white"/>
</linearGradient>
<linearGradient id="paint1_linear_1289_804" x1="124.165" y1="113.042" x2="76.5369" y2="32.6496" gradientUnits="userSpaceOnUse">
<stop offset="0.0909" stop-color="#4088AF"/>
<stop offset="0.5" stop-color="#3882AD"/>
<stop offset="0.691" stop-color="#4EB6DD"/>
<stop offset="0.798" stop-color="#58CFF3"/>
<stop offset="1" stop-color="#3888B7"/>
</linearGradient>
<linearGradient id="paint2_linear_1289_804" x1="115.932" y1="50.5612" x2="62.4275" y2="118.146" gradientUnits="userSpaceOnUse">
<stop stop-color="#0082C5"/>
<stop offset="0.3301" stop-color="#2D7CB7"/>
<stop offset="0.6313" stop-color="#5277AB"/>
<stop offset="0.6752" stop-color="#5B76A9"/>
<stop offset="0.7464" stop-color="#7375A2"/>
<stop offset="0.8361" stop-color="#9A7397"/>
<stop offset="0.9398" stop-color="#D06F88"/>
<stop offset="1" stop-color="#F36D7E"/>
</linearGradient>
</defs>
</svg>
