<svg width="188" height="159" viewBox="0 0 188 159" fill="none" xmlns="http://www.w3.org/2000/svg">
<path d="M107.38 33.23C97.57 27.57 88.64 26.71 81.93 29.89L76.54 32.95V32.98C83.23 29.87 92.12 30.75 101.86 36.38C122.67 48.4 139.54 77.5 139.54 101.38C139.54 112.97 135.56 121.2 129.09 125.23L132.71 123.12C140.29 119.59 145.06 110.93 145.06 98.24C145.06 74.35 128.19 45.25 107.38 33.23Z" fill="url(#paint0_linear_1289_1313)"/>
<path d="M101.86 36.3698C81.0497 24.3498 64.1797 33.9698 64.1797 57.8498C64.1797 81.7298 81.0497 110.83 101.86 122.85C122.67 134.87 139.54 125.25 139.54 101.37C139.54 77.4898 122.67 48.3898 101.86 36.3698Z" fill="url(#paint1_linear_1289_1313)"/>
<path d="M102.419 36.0599C91.8693 29.9699 82.3293 29.4399 75.4893 33.5099C82.2893 29.7899 91.5992 30.4499 101.869 36.3799C122.679 48.3999 139.549 77.4899 139.549 101.38C139.549 113.15 135.449 121.45 128.799 125.41C135.779 121.59 140.109 113.16 140.109 101.06C140.099 77.1699 123.229 48.0699 102.419 36.0599Z" fill="white"/>
<path d="M139.54 101.37C139.54 125.25 122.67 134.87 101.86 122.85C81.0497 110.83 64.1797 81.7298 64.1797 57.8498C64.1797 33.9698 81.0497 24.3498 101.86 36.3698C122.67 48.3898 139.54 77.4898 139.54 101.37Z" fill="url(#paint2_linear_1289_1313)"/>
<path d="M127.221 122.989C141.052 114.903 140.911 88.9251 126.904 64.9665C112.897 41.008 90.33 28.1409 76.4984 36.2271C62.6668 44.3133 62.8087 70.2907 76.8153 94.2492C90.8219 118.208 113.389 131.075 127.221 122.989Z" fill="white"/>
<path d="M123.567 116.739C135.405 109.818 135.284 87.583 123.295 67.0764C111.307 46.5698 91.9912 35.5565 80.1525 42.4776C68.3139 49.3986 68.4354 71.6332 80.4239 92.1398C92.4125 112.646 111.728 123.66 123.567 116.739Z" fill="#AFB6E5"/>
<path d="M119.453 109.703C129.046 104.095 128.945 86.0748 119.229 69.454C109.512 52.8332 93.8581 43.9057 84.2651 49.5139C74.6721 55.1221 74.7725 73.1423 84.4893 89.7631C94.2062 106.384 109.86 115.311 119.453 109.703Z" fill="white"/>
<path d="M115.567 103.056C123.043 98.6851 122.967 84.6443 115.396 71.6948C107.825 58.7452 95.6278 51.7906 88.1518 56.1613C80.6758 60.5319 80.7524 74.5726 88.3229 87.5222C95.8934 100.472 108.091 107.426 115.567 103.056Z" fill="#AFB6E5"/>
<path d="M111.913 96.806C117.396 93.6005 117.34 83.3027 111.787 73.8051C106.235 64.3076 97.2889 59.2068 91.8058 62.4123C86.3228 65.6178 86.3791 75.9156 91.9315 85.4132C97.4839 94.9107 106.43 100.011 111.913 96.806Z" fill="white"/>
<path d="M102.41 120.17C82.7297 108.81 66.7697 81.2798 66.7697 58.6898C66.7697 47.9098 70.4097 40.1998 76.3497 36.3198C70.0797 40.0698 66.2197 47.9198 66.2197 59.0298C66.2197 81.6198 82.1797 109.14 101.86 120.51C112.15 126.45 121.41 126.8 127.92 122.55C121.45 126.43 112.41 125.94 102.41 120.17Z" fill="#AFB6E5"/>
<path d="M102.41 107.64C88.7497 99.76 77.6897 80.66 77.6897 64.99C77.6897 57.48 80.2396 52.13 84.3896 49.45C79.9096 52 77.1396 57.5 77.1396 65.33C77.1396 81 88.2097 100.09 101.86 107.98C108.97 112.09 115.38 112.33 119.89 109.42C115.41 111.98 109.24 111.58 102.41 107.64Z" fill="#CED3F4"/>
<path d="M102.41 95.4799C94.6095 90.9699 88.2795 80.0599 88.2795 71.1099C88.2795 66.9399 89.6595 63.9199 91.9095 62.3599C89.3295 63.8099 87.7295 66.9599 87.7295 71.4599C87.7295 80.4099 94.0595 91.3199 101.859 95.8299C106.029 98.2299 109.77 98.3299 112.35 96.5299C109.8 97.9599 106.29 97.7199 102.41 95.4799Z" fill="#CED3F4"/>
<path d="M109.72 84.15C109.72 89.13 106.2 91.14 101.86 88.63C97.52 86.12 94 80.05 94 75.07C94 70.09 97.52 68.08 101.86 70.59C106.2 73.1 109.72 79.17 109.72 84.15Z" fill="url(#paint3_linear_1289_1313)"/>
<path opacity="0.5" d="M102.7 79.7899C102.7 80.1799 102.42 80.3399 102.08 80.1399C101.74 79.9399 101.46 79.4599 101.46 79.0699C101.46 78.6799 101.74 78.5199 102.08 78.7199C102.42 78.9199 102.7 79.3999 102.7 79.7899Z" fill="url(#paint4_linear_1289_1313)"/>
<path d="M101.86 70.5898C99.8997 69.4598 98.0997 69.2498 96.7197 69.8198C98.0197 69.4898 99.6097 69.7698 101.33 70.7698C105.67 73.2798 109.19 79.3498 109.19 84.3298C109.19 87.0598 108.13 88.8898 106.46 89.5798C108.43 89.0798 109.71 87.1598 109.71 84.1498C109.72 79.1698 106.2 73.0998 101.86 70.5898Z" fill="#F36D7E"/>
<path d="M45.3604 112.56L41.2404 112C38.9904 111.7 38.7804 108.52 40.9704 107.92L64.0704 101.61L45.3604 112.56Z" fill="url(#paint5_linear_1289_1313)"/>
<path d="M45.5202 112.16L41.4002 111.6C39.9702 111.41 39.3702 110.06 39.6702 108.95C39.0702 110.11 39.6303 111.79 41.2403 112.01L45.3602 112.57L64.0703 101.62L63.0802 101.89L45.5202 112.16Z" fill="#5277AB"/>
<path opacity="0.7" d="M41.3403 111.72L45.4603 112.28L63.3403 101.81L63.0803 101.88L45.5303 112.16L41.4103 111.6C39.9803 111.41 39.3803 110.06 39.6803 108.95C39.6603 109 39.6403 109.05 39.6203 109.09C39.3203 110.2 39.9203 111.53 41.3403 111.72Z" fill="#BB5987"/>
<path d="M103.47 78.91C103.47 78.99 103.44 79.05 103.4 79.08C103.4 79.08 102.99 80.97 97.94 83.9C90.72 88.08 93.94 85.86 93.94 85.86C93.75 85.97 93.87 85.73 93.58 85.56C93 85.22 92.52 84.41 92.52 83.74C92.52 83.41 92.2099 83.41 92.3999 83.3C92.3999 83.3 88.8699 84.99 96.0899 80.81C101.16 77.88 103.03 78.46 103.03 78.46C103.08 78.43 103.14 78.44 103.22 78.48C103.35 78.54 103.47 78.74 103.47 78.91Z" fill="#AFB6E5"/>
<path d="M94.4899 85.2501C94.4899 86.0101 93.9498 86.32 93.2898 85.93C92.6298 85.55 92.0898 84.6201 92.0898 83.8601C92.0898 83.1001 92.6298 82.79 93.2898 83.18C93.9498 83.56 94.4899 84.4901 94.4899 85.2501Z" fill="#CED3F4"/>
<path d="M94.2498 85.28C94.2498 85.63 94.1298 85.89 93.9298 86.01L44.0898 114.98C43.8798 115.1 44.0198 114.83 43.6998 114.65C43.0698 114.28 42.5498 113.4 42.5498 112.67C42.5498 112.31 42.2198 112.31 42.4198 112.19L92.2998 83.22C92.5098 83.11 92.7898 83.13 93.0998 83.31C93.7398 83.67 94.2498 84.55 94.2498 85.28Z" fill="url(#paint6_linear_1289_1313)"/>
<path d="M44.3801 114.26C44.3801 114.99 43.8701 115.28 43.2301 114.91C42.6001 114.54 42.0801 113.66 42.0801 112.93C42.0801 112.2 42.5901 111.91 43.2301 112.28C43.8701 112.65 44.3801 113.53 44.3801 114.26Z" fill="#AA1C5A"/>
<path d="M44.6702 111.05L63.7703 100.04L48.8603 98.8199C43.2803 98.3599 39.8002 104.76 43.2302 109.19L44.6702 111.05Z" fill="#5277AB"/>
<path d="M44.9701 110.99L64.0701 99.9801L49.1601 98.7601C43.5801 98.3001 40.1001 104.7 43.5301 109.13L44.9701 110.99Z" fill="url(#paint7_linear_1289_1313)"/>
<path opacity="0.7" d="M43.8208 109.25C40.3908 104.82 43.8608 98.4201 49.4508 98.8801L63.9308 100.07L64.0808 99.9801L49.1708 98.7601C43.5908 98.3001 40.1108 104.7 43.5408 109.13L44.9808 110.99L45.1108 110.91L43.8208 109.25Z" fill="#BB5987"/>
<path d="M45.8809 113.29L46.3509 114.98C47.6009 119.48 53.5909 120.37 56.1009 116.43L64.9909 102.46L45.8809 113.29Z" fill="#5277AB"/>
<path d="M46.1807 113.05L46.6507 114.74C47.9007 119.24 53.8907 120.13 56.4007 116.19L65.2907 102.22L46.1807 113.05Z" fill="url(#paint8_linear_1289_1313)"/>
<path opacity="0.7" d="M56.5499 115.9C54.0399 119.84 48.0599 118.95 46.7999 114.45L46.3799 112.93L46.1699 113.05L46.6399 114.74C47.8899 119.24 53.8799 120.13 56.3899 116.19L65.2799 102.22L65.2499 102.24L56.5499 115.9Z" fill="#BB5987"/>
<defs>
<linearGradient id="paint0_linear_1289_1313" x1="145.446" y1="113.567" x2="86.7793" y2="26.9002" gradientUnits="userSpaceOnUse">
<stop offset="0.0909" stop-color="#4088AF"/>
<stop offset="0.5" stop-color="#3882AD"/>
<stop offset="0.691" stop-color="#4EB6DD"/>
<stop offset="0.798" stop-color="#58CFF3"/>
<stop offset="1" stop-color="#3888B7"/>
</linearGradient>
<linearGradient id="paint1_linear_1289_1313" x1="64.1779" y1="57.858" x2="139.542" y2="57.858" gradientUnits="userSpaceOnUse">
<stop stop-color="#911B61"/>
<stop offset="0.1976" stop-color="#5E0F53"/>
<stop offset="0.3953" stop-color="#310446"/>
<stop offset="0.4949" stop-color="#200041"/>
<stop offset="1" stop-color="#0F001F"/>
</linearGradient>
<linearGradient id="paint2_linear_1289_1313" x1="124.762" y1="58.2596" x2="75.4291" y2="104.26" gradientUnits="userSpaceOnUse">
<stop stop-color="#0082C5"/>
<stop offset="0.3301" stop-color="#2D7CB7"/>
<stop offset="0.6313" stop-color="#5277AB"/>
<stop offset="0.6752" stop-color="#5B76A9"/>
<stop offset="0.7464" stop-color="#7375A2"/>
<stop offset="0.8361" stop-color="#9A7397"/>
<stop offset="0.9398" stop-color="#D06F88"/>
<stop offset="1" stop-color="#F36D7E"/>
</linearGradient>
<linearGradient id="paint3_linear_1289_1313" x1="85.3401" y1="99.8834" x2="105.786" y2="74.799" gradientUnits="userSpaceOnUse">
<stop offset="0.00505051" stop-color="#BB5987"/>
<stop offset="0.0529" stop-color="#C45C86"/>
<stop offset="0.2205" stop-color="#DE6581"/>
<stop offset="0.3713" stop-color="#ED6B7F"/>
<stop offset="0.4899" stop-color="#F36D7E"/>
<stop offset="1" stop-color="#F36D91"/>
</linearGradient>
<linearGradient id="paint4_linear_1289_1313" x1="101.462" y1="79.4365" x2="102.7" y2="79.4365" gradientUnits="userSpaceOnUse">
<stop stop-color="#911B61"/>
<stop offset="0.1976" stop-color="#5E0F53"/>
<stop offset="0.3953" stop-color="#310446"/>
<stop offset="0.4949" stop-color="#200041"/>
<stop offset="1" stop-color="#0F001F"/>
</linearGradient>
<linearGradient id="paint5_linear_1289_1313" x1="39.4316" y1="107.088" x2="64.0658" y2="107.088" gradientUnits="userSpaceOnUse">
<stop offset="0.00505051" stop-color="#0082C5"/>
<stop offset="0.399" stop-color="#5277AB"/>
<stop offset="0.4833" stop-color="#6176A7"/>
<stop offset="0.6468" stop-color="#8A749B"/>
<stop offset="0.8709" stop-color="#CB7089"/>
<stop offset="1" stop-color="#F36D7E"/>
</linearGradient>
<linearGradient id="paint6_linear_1289_1313" x1="67.5464" y1="97.487" x2="69.2059" y2="100.369" gradientUnits="userSpaceOnUse">
<stop offset="0.00505051" stop-color="#273B60"/>
<stop offset="0.0714" stop-color="#37375F"/>
<stop offset="0.2008" stop-color="#602E5D"/>
<stop offset="0.379" stop-color="#A21E5A"/>
<stop offset="0.399" stop-color="#AA1C5A"/>
<stop offset="0.8712" stop-color="#870647"/>
<stop offset="1" stop-color="#7C0042"/>
</linearGradient>
<linearGradient id="paint7_linear_1289_1313" x1="44.2666" y1="105.737" x2="85.9203" y2="85.2476" gradientUnits="userSpaceOnUse">
<stop offset="0.00505051" stop-color="#0082C5"/>
<stop offset="0.399" stop-color="#5277AB"/>
<stop offset="0.4833" stop-color="#6176A7"/>
<stop offset="0.6468" stop-color="#8A749B"/>
<stop offset="0.8709" stop-color="#CB7089"/>
<stop offset="1" stop-color="#F36D7E"/>
</linearGradient>
<linearGradient id="paint8_linear_1289_1313" x1="49.9252" y1="116.269" x2="74.4671" y2="87.2239" gradientUnits="userSpaceOnUse">
<stop offset="0.00505051" stop-color="#0082C5"/>
<stop offset="0.399" stop-color="#5277AB"/>
<stop offset="0.4833" stop-color="#6176A7"/>
<stop offset="0.6468" stop-color="#8A749B"/>
<stop offset="0.8709" stop-color="#CB7089"/>
<stop offset="1" stop-color="#F36D7E"/>
</linearGradient>
</defs>
</svg>
