<svg width="273" height="136" viewBox="0 0 273 136" fill="none" xmlns="http://www.w3.org/2000/svg">
<rect x="35" width="35" height="35" rx="8" transform="rotate(90 35 0)" fill="white"/>
<path d="M12.6634 24V22.2869L17.2081 17.8317C17.6428 17.3928 18.005 17.0028 18.2947 16.6619C18.5845 16.321 18.8018 15.9908 18.9467 15.6712C19.0916 15.3516 19.1641 15.0107 19.1641 14.6484C19.1641 14.2351 19.0703 13.8814 18.8828 13.5874C18.6953 13.2891 18.4375 13.0589 18.1094 12.897C17.7812 12.7351 17.4084 12.6541 16.9908 12.6541C16.5604 12.6541 16.1832 12.7436 15.8594 12.9226C15.5355 13.0973 15.2841 13.3466 15.1051 13.6705C14.9304 13.9943 14.843 14.38 14.843 14.8274H12.5866C12.5866 13.9964 12.7763 13.2741 13.1555 12.6605C13.5348 12.0469 14.0568 11.5717 14.7216 11.2351C15.3906 10.8984 16.1577 10.7301 17.0227 10.7301C17.9006 10.7301 18.6719 10.8942 19.3366 11.2223C20.0014 11.5504 20.517 12 20.8835 12.571C21.2543 13.142 21.4396 13.794 21.4396 14.527C21.4396 15.017 21.3459 15.4986 21.1584 15.9716C20.9709 16.4446 20.6406 16.9687 20.1676 17.544C19.6989 18.1193 19.0405 18.8161 18.1925 19.6342L15.9361 21.929V22.0185H21.6378V24H12.6634Z" fill="#65B2D6"/>
<path d="M17.1477 91.5455V109H12.4773V95.2955H6.57955V109H1.90909V91.5455H17.1477ZM20.1797 109V91.5455H27.7138C29.0092 91.5455 30.1428 91.8011 31.1143 92.3125C32.0859 92.8239 32.8416 93.5426 33.3814 94.4688C33.9212 95.3949 34.1911 96.4773 34.1911 97.7159C34.1911 98.9659 33.9126 100.048 33.3558 100.963C32.8047 101.878 32.0291 102.582 31.0291 103.077C30.0348 103.571 28.8729 103.818 27.5433 103.818H23.0433V100.136H26.5888C27.1456 100.136 27.62 100.04 28.0121 99.8466C28.4098 99.6477 28.7138 99.3665 28.924 99.0028C29.1399 98.6392 29.2479 98.2102 29.2479 97.7159C29.2479 97.2159 29.1399 96.7898 28.924 96.4375C28.7138 96.0795 28.4098 95.8068 28.0121 95.6193C27.62 95.4261 27.1456 95.3295 26.5888 95.3295H24.9183V109H20.1797ZM52.8388 100.273C52.8388 102.216 52.4609 103.855 51.7053 105.19C50.9496 106.52 49.9297 107.528 48.6456 108.216C47.3615 108.898 45.9297 109.239 44.3501 109.239C42.7592 109.239 41.3217 108.895 40.0376 108.207C38.7592 107.514 37.7422 106.503 36.9865 105.173C36.2365 103.838 35.8615 102.205 35.8615 100.273C35.8615 98.3295 36.2365 96.6932 36.9865 95.3636C37.7422 94.0284 38.7592 93.0199 40.0376 92.3381C41.3217 91.6506 42.7592 91.3068 44.3501 91.3068C45.9297 91.3068 47.3615 91.6506 48.6456 92.3381C49.9297 93.0199 50.9496 94.0284 51.7053 95.3636C52.4609 96.6932 52.8388 98.3295 52.8388 100.273ZM47.9638 100.273C47.9638 99.2273 47.8246 98.3466 47.5462 97.6307C47.2734 96.9091 46.8672 96.3636 46.3274 95.9943C45.7933 95.6193 45.1342 95.4318 44.3501 95.4318C43.5661 95.4318 42.9041 95.6193 42.3643 95.9943C41.8303 96.3636 41.424 96.9091 41.1456 97.6307C40.8729 98.3466 40.7365 99.2273 40.7365 100.273C40.7365 101.318 40.8729 102.202 41.1456 102.923C41.424 103.639 41.8303 104.185 42.3643 104.56C42.9041 104.929 43.5661 105.114 44.3501 105.114C45.1342 105.114 45.7933 104.929 46.3274 104.56C46.8672 104.185 47.2734 103.639 47.5462 102.923C47.8246 102.202 47.9638 101.318 47.9638 100.273ZM55.0312 91.5455H59.7699V100.682H59.9062L66.1108 91.5455H70.1335V109H65.3949V99.8295H65.2926L58.9858 109H55.0312V91.5455ZM64.304 86.8409H67.2699C67.2642 87.9489 66.8409 88.8352 66 89.5C65.1591 90.1591 64.0256 90.4886 62.5994 90.4886C61.1619 90.4886 60.0227 90.1591 59.1818 89.5C58.3409 88.8352 57.9233 87.9489 57.929 86.8409H60.8608C60.8551 87.1989 60.983 87.5284 61.2443 87.8295C61.5114 88.125 61.9631 88.2727 62.5994 88.2727C63.2074 88.2727 63.642 88.1278 63.9034 87.8381C64.1648 87.5483 64.2983 87.2159 64.304 86.8409ZM71.7955 113.193V105.352H73.0227C73.4318 105.102 73.8011 104.75 74.1307 104.295C74.4659 103.841 74.75 103.19 74.983 102.344C75.2216 101.497 75.3977 100.364 75.5114 98.9432L76.0909 91.5455H88.4318V105.352H90.2727V113.193H85.7045V109H76.3636V113.193H71.7955ZM78.4432 105.352H83.8636V95.3636H80.3523L80.0795 98.9432C80 100.011 79.8778 100.946 79.7131 101.747C79.554 102.543 79.3636 103.236 79.142 103.827C78.9261 104.412 78.6932 104.92 78.4432 105.352ZM91.875 91.5455H96.6136V100.682H96.75L102.955 91.5455H106.977V109H102.239V99.8295H102.136L95.8295 109H91.875V91.5455ZM108.741 95.3636V91.5455H123.912V95.3636H118.662V109H113.991V95.3636H108.741ZM125.695 109V91.5455H138.275V95.3636H130.434V98.3636H137.627V102.182H130.434V105.182H138.241V109H125.695ZM156.162 109L150.81 101.943H150.145V109H145.406V91.5455H150.145V98.125H150.759L155.77 91.5455H161.736L155.088 99.9318L162.111 109H156.162ZM165.906 109.239V105.557H166.758C167.258 105.557 167.653 105.517 167.942 105.438C168.238 105.352 168.465 105.205 168.624 104.994C168.789 104.778 168.928 104.477 169.042 104.091L169.212 103.58L162.667 91.5455H167.508L171.156 98.6364L173.951 91.5455H178.724L172.724 105.182C172.394 105.898 172.002 106.565 171.548 107.185C171.093 107.798 170.528 108.295 169.852 108.676C169.175 109.051 168.337 109.239 167.337 109.239H165.906ZM180.258 109V91.5455H187.792C189.087 91.5455 190.221 91.8011 191.192 92.3125C192.164 92.8239 192.92 93.5426 193.46 94.4688C193.999 95.3949 194.269 96.4773 194.269 97.7159C194.269 98.9659 193.991 100.048 193.434 100.963C192.883 101.878 192.107 102.582 191.107 103.077C190.113 103.571 188.951 103.818 187.621 103.818H183.121V100.136H186.667C187.224 100.136 187.698 100.04 188.09 99.8466C188.488 99.6477 188.792 99.3665 189.002 99.0028C189.218 98.6392 189.326 98.2102 189.326 97.7159C189.326 97.2159 189.218 96.7898 189.002 96.4375C188.792 96.0795 188.488 95.8068 188.09 95.6193C187.698 95.4261 187.224 95.3295 186.667 95.3295H184.996V109H180.258ZM212.303 98.0909H207.496C207.462 97.6932 207.371 97.3324 207.224 97.0085C207.082 96.6847 206.883 96.4062 206.627 96.1733C206.377 95.9347 206.073 95.7528 205.715 95.6278C205.357 95.4972 204.951 95.4318 204.496 95.4318C203.701 95.4318 203.028 95.625 202.477 96.0114C201.931 96.3977 201.516 96.9517 201.232 97.6733C200.954 98.3949 200.815 99.2614 200.815 100.273C200.815 101.341 200.957 102.236 201.241 102.957C201.531 103.673 201.948 104.213 202.494 104.577C203.039 104.935 203.695 105.114 204.462 105.114C204.9 105.114 205.292 105.06 205.638 104.952C205.985 104.838 206.286 104.676 206.542 104.466C206.798 104.256 207.005 104.003 207.164 103.707C207.329 103.406 207.44 103.068 207.496 102.693L212.303 102.727C212.246 103.466 212.039 104.219 211.681 104.986C211.323 105.747 210.815 106.452 210.156 107.099C209.502 107.741 208.692 108.259 207.727 108.651C206.761 109.043 205.638 109.239 204.36 109.239C202.758 109.239 201.32 108.895 200.048 108.207C198.781 107.52 197.778 106.509 197.039 105.173C196.306 103.838 195.94 102.205 195.94 100.273C195.94 98.3295 196.315 96.6932 197.065 95.3636C197.815 94.0284 198.826 93.0199 200.099 92.3381C201.371 91.6506 202.792 91.3068 204.36 91.3068C205.462 91.3068 206.477 91.4574 207.403 91.7585C208.329 92.0597 209.141 92.5 209.84 93.0795C210.539 93.6534 211.102 94.3608 211.528 95.2017C211.954 96.0426 212.212 97.0057 212.303 98.0909Z" fill="white"/>
<path d="M1.15057 131V122.818H4.49574C5.37642 122.818 6.07599 123.017 6.59446 123.415C7.11293 123.812 7.37216 124.338 7.37216 124.991C7.37216 125.489 7.22479 125.874 6.93004 126.147C6.6353 126.417 6.2571 126.6 5.79545 126.696C6.0973 126.739 6.39027 126.845 6.67436 127.016C6.962 127.186 7.19993 127.42 7.38814 127.719C7.57635 128.013 7.67045 128.376 7.67045 128.805C7.67045 129.224 7.56392 129.599 7.35085 129.929C7.13778 130.26 6.83239 130.521 6.43466 130.712C6.03693 130.904 5.56108 131 5.0071 131H1.15057ZM2.34375 129.849H5.0071C5.44034 129.849 5.77947 129.746 6.0245 129.54C6.26953 129.335 6.39205 129.054 6.39205 128.699C6.39205 128.276 6.26953 127.944 6.0245 127.703C5.77947 127.458 5.44034 127.335 5.0071 127.335H2.34375V129.849ZM2.34375 126.249H4.49574C4.8331 126.249 5.12251 126.202 5.36399 126.11C5.60547 126.014 5.79013 125.879 5.91797 125.705C6.04936 125.528 6.11506 125.318 6.11506 125.077C6.11506 124.732 5.97124 124.462 5.68359 124.267C5.39595 124.068 5 123.969 4.49574 123.969H2.34375V126.249ZM13.7922 131V122.818H15.0493V126.376H15.8802L18.8206 122.818H20.4399L17.1373 126.76L20.4825 131H18.8632L16.1785 127.548H15.0493V131H13.7922ZM24.8358 131.17C24.0971 131.17 23.449 130.995 22.8915 130.643C22.3375 130.292 21.9043 129.8 21.5918 129.168C21.2828 128.536 21.1284 127.797 21.1284 126.952C21.1284 126.099 21.2828 125.355 21.5918 124.72C21.9043 124.084 22.3375 123.591 22.8915 123.239C23.449 122.887 24.0971 122.712 24.8358 122.712C25.5744 122.712 26.2207 122.887 26.7747 123.239C27.3322 123.591 27.7654 124.084 28.0744 124.72C28.3869 125.355 28.5431 126.099 28.5431 126.952C28.5431 127.797 28.3869 128.536 28.0744 129.168C27.7654 129.8 27.3322 130.292 26.7747 130.643C26.2207 130.995 25.5744 131.17 24.8358 131.17ZM24.8358 130.041C25.3968 130.041 25.8585 129.897 26.2207 129.61C26.5829 129.322 26.851 128.944 27.025 128.475C27.199 128.006 27.286 127.499 27.286 126.952C27.286 126.405 27.199 125.895 27.025 125.423C26.851 124.951 26.5829 124.569 26.2207 124.278C25.8585 123.987 25.3968 123.841 24.8358 123.841C24.2747 123.841 23.813 123.987 23.4508 124.278C23.0886 124.569 22.8205 124.951 22.6465 125.423C22.4725 125.895 22.3855 126.405 22.3855 126.952C22.3855 127.499 22.4725 128.006 22.6465 128.475C22.8205 128.944 23.0886 129.322 23.4508 129.61C23.813 129.897 24.2747 130.041 24.8358 130.041ZM34.9365 129.295L37.7916 122.818H38.9848L35.4479 131H34.4252L30.9521 122.818H32.124L34.9365 129.295ZM31.7192 122.818V131H30.4621V122.818H31.7192ZM38.1539 131V122.818H39.411V131H38.1539ZM45.036 133.791V120.091H46.2931V133.791H45.036ZM45.036 131.17C44.482 131.17 43.9777 131.071 43.5232 130.872C43.0686 130.67 42.678 130.384 42.3513 130.015C42.0246 129.642 41.7725 129.196 41.5949 128.678C41.4173 128.159 41.3286 127.584 41.3286 126.952C41.3286 126.312 41.4173 125.734 41.5949 125.215C41.7725 124.693 42.0246 124.246 42.3513 123.873C42.678 123.5 43.0686 123.214 43.5232 123.015C43.9777 122.813 44.482 122.712 45.036 122.712H45.4195V131.17H45.036ZM45.036 130.041H45.249V123.841H45.036C44.6169 123.841 44.2529 123.926 43.944 124.097C43.635 124.263 43.3794 124.493 43.1769 124.784C42.9781 125.071 42.8289 125.402 42.7295 125.775C42.6336 126.147 42.5857 126.54 42.5857 126.952C42.5857 127.499 42.6727 128.006 42.8467 128.475C43.0207 128.944 43.2888 129.322 43.651 129.61C44.0132 129.897 44.4749 130.041 45.036 130.041ZM46.2931 131.17H45.9095V122.712H46.2931C46.847 122.712 47.3513 122.813 47.8058 123.015C48.2604 123.214 48.651 123.5 48.9777 123.873C49.3044 124.246 49.5566 124.693 49.7341 125.215C49.9117 125.734 50.0004 126.312 50.0004 126.952C50.0004 127.584 49.9117 128.159 49.7341 128.678C49.5566 129.196 49.3044 129.642 48.9777 130.015C48.651 130.384 48.2604 130.67 47.8058 130.872C47.3513 131.071 46.847 131.17 46.2931 131.17ZM46.2931 130.041C46.7156 130.041 47.0796 129.96 47.385 129.796C47.694 129.629 47.9479 129.402 48.1468 129.114C48.3492 128.823 48.4983 128.493 48.5942 128.124C48.6936 127.751 48.7433 127.36 48.7433 126.952C48.7433 126.405 48.6563 125.895 48.4823 125.423C48.3083 124.951 48.0402 124.569 47.678 124.278C47.3158 123.987 46.8541 123.841 46.2931 123.841H46.08V130.041H46.2931ZM55.2459 131.17C54.5073 131.17 53.8592 130.995 53.3017 130.643C52.7477 130.292 52.3145 129.8 52.002 129.168C51.693 128.536 51.5385 127.797 51.5385 126.952C51.5385 126.099 51.693 125.355 52.002 124.72C52.3145 124.084 52.7477 123.591 53.3017 123.239C53.8592 122.887 54.5073 122.712 55.2459 122.712C55.9846 122.712 56.6309 122.887 57.1848 123.239C57.7424 123.591 58.1756 124.084 58.4846 124.72C58.7971 125.355 58.9533 126.099 58.9533 126.952C58.9533 127.797 58.7971 128.536 58.4846 129.168C58.1756 129.8 57.7424 130.292 57.1848 130.643C56.6309 130.995 55.9846 131.17 55.2459 131.17ZM55.2459 130.041C55.807 130.041 56.2686 129.897 56.6309 129.61C56.9931 129.322 57.2612 128.944 57.4352 128.475C57.6092 128.006 57.6962 127.499 57.6962 126.952C57.6962 126.405 57.6092 125.895 57.4352 125.423C57.2612 124.951 56.9931 124.569 56.6309 124.278C56.2686 123.987 55.807 123.841 55.2459 123.841C54.6848 123.841 54.2232 123.987 53.861 124.278C53.4988 124.569 53.2306 124.951 53.0566 125.423C52.8826 125.895 52.7956 126.405 52.7956 126.952C52.7956 127.499 52.8826 128.006 53.0566 128.475C53.2306 128.944 53.4988 129.322 53.861 129.61C54.2232 129.897 54.6848 130.041 55.2459 130.041ZM60.8722 134.068V122.818H62.0867V124.118H62.2359C62.3282 123.976 62.4561 123.795 62.6194 123.575C62.7863 123.351 63.0242 123.152 63.3332 122.978C63.6457 122.8 64.0683 122.712 64.6009 122.712C65.2899 122.712 65.8971 122.884 66.4227 123.228C66.9482 123.573 67.3584 124.061 67.6531 124.693C67.9479 125.325 68.0953 126.071 68.0953 126.93C68.0953 127.797 67.9479 128.548 67.6531 129.184C67.3584 129.816 66.95 130.306 66.428 130.654C65.906 130.998 65.3041 131.17 64.6222 131.17C64.0967 131.17 63.6759 131.083 63.3598 130.909C63.0438 130.732 62.8005 130.531 62.6301 130.308C62.4596 130.08 62.3282 129.892 62.2359 129.743H62.1294V134.068H60.8722ZM62.108 126.909C62.108 127.527 62.1986 128.072 62.3797 128.544C62.5608 129.013 62.8254 129.381 63.1734 129.647C63.5214 129.91 63.9475 130.041 64.4518 130.041C64.9774 130.041 65.4159 129.903 65.7675 129.626C66.1226 129.345 66.3889 128.969 66.5665 128.496C66.7476 128.021 66.8382 127.491 66.8382 126.909C66.8382 126.334 66.7494 125.815 66.5718 125.354C66.3978 124.888 66.1333 124.521 65.7781 124.251C65.4266 123.978 64.9845 123.841 64.4518 123.841C63.9404 123.841 63.5107 123.971 63.1627 124.23C62.8147 124.485 62.5519 124.844 62.3744 125.306C62.1968 125.764 62.108 126.298 62.108 126.909ZM68.9435 123.99V122.818H75.5913V123.99H72.9066V131H71.6495V123.99H68.9435ZM82.9008 126.334V127.506H78.3838V126.334H82.9008ZM78.6821 122.818V131H77.425V122.818H78.6821ZM83.8596 122.818V131H82.6025V122.818H83.8596ZM89.4793 131.17C88.7407 131.17 88.0926 130.995 87.5351 130.643C86.9811 130.292 86.5479 129.8 86.2354 129.168C85.9264 128.536 85.7719 127.797 85.7719 126.952C85.7719 126.099 85.9264 125.355 86.2354 124.72C86.5479 124.084 86.9811 123.591 87.5351 123.239C88.0926 122.887 88.7407 122.712 89.4793 122.712C90.218 122.712 90.8643 122.887 91.4182 123.239C91.9758 123.591 92.409 124.084 92.718 124.72C93.0305 125.355 93.1867 126.099 93.1867 126.952C93.1867 127.797 93.0305 128.536 92.718 129.168C92.409 129.8 91.9758 130.292 91.4182 130.643C90.8643 130.995 90.218 131.17 89.4793 131.17ZM89.4793 130.041C90.0404 130.041 90.502 129.897 90.8643 129.61C91.2265 129.322 91.4946 128.944 91.6686 128.475C91.8426 128.006 91.9296 127.499 91.9296 126.952C91.9296 126.405 91.8426 125.895 91.6686 125.423C91.4946 124.951 91.2265 124.569 90.8643 124.278C90.502 123.987 90.0404 123.841 89.4793 123.841C88.9182 123.841 88.4566 123.987 88.0944 124.278C87.7322 124.569 87.464 124.951 87.29 125.423C87.116 125.895 87.029 126.405 87.029 126.952C87.029 127.499 87.116 128.006 87.29 128.475C87.464 128.944 87.7322 129.322 88.0944 129.61C88.4566 129.897 88.9182 130.041 89.4793 130.041ZM99.5801 129.295L102.435 122.818H103.628L100.091 131H99.0687L95.5957 122.818H96.7676L99.5801 129.295ZM96.3627 122.818V131H95.1056V122.818H96.3627ZM102.797 131V122.818H104.055V131H102.797ZM110.574 134.068V122.818H111.789V124.118H111.938C112.03 123.976 112.158 123.795 112.322 123.575C112.488 123.351 112.726 123.152 113.035 122.978C113.348 122.8 113.77 122.712 114.303 122.712C114.992 122.712 115.599 122.884 116.125 123.228C116.65 123.573 117.061 124.061 117.355 124.693C117.65 125.325 117.797 126.071 117.797 126.93C117.797 127.797 117.65 128.548 117.355 129.184C117.061 129.816 116.652 130.306 116.13 130.654C115.608 130.998 115.006 131.17 114.324 131.17C113.799 131.17 113.378 131.083 113.062 130.909C112.746 130.732 112.503 130.531 112.332 130.308C112.162 130.08 112.03 129.892 111.938 129.743H111.831V134.068H110.574ZM111.81 126.909C111.81 127.527 111.901 128.072 112.082 128.544C112.263 129.013 112.528 129.381 112.876 129.647C113.224 129.91 113.65 130.041 114.154 130.041C114.68 130.041 115.118 129.903 115.47 129.626C115.825 129.345 116.091 128.969 116.269 128.496C116.45 128.021 116.54 127.491 116.54 126.909C116.54 126.334 116.452 125.815 116.274 125.354C116.1 124.888 115.835 124.521 115.48 124.251C115.129 123.978 114.687 123.841 114.154 123.841C113.643 123.841 113.213 123.971 112.865 124.23C112.517 124.485 112.254 124.844 112.077 125.306C111.899 125.764 111.81 126.298 111.81 126.909ZM123.145 131.17C122.357 131.17 121.677 130.996 121.105 130.648C120.537 130.297 120.099 129.807 119.79 129.178C119.484 128.546 119.331 127.811 119.331 126.973C119.331 126.135 119.484 125.396 119.79 124.757C120.099 124.114 120.528 123.614 121.079 123.255C121.633 122.893 122.279 122.712 123.018 122.712C123.444 122.712 123.865 122.783 124.28 122.925C124.695 123.067 125.074 123.298 125.415 123.617C125.756 123.933 126.027 124.352 126.23 124.874C126.432 125.396 126.533 126.039 126.533 126.803V127.335H120.226V126.249H125.255C125.255 125.787 125.162 125.375 124.978 125.013C124.797 124.651 124.537 124.365 124.2 124.155C123.866 123.946 123.472 123.841 123.018 123.841C122.517 123.841 122.084 123.965 121.718 124.214C121.356 124.459 121.077 124.778 120.882 125.173C120.686 125.567 120.589 125.989 120.589 126.44V127.165C120.589 127.783 120.695 128.306 120.908 128.736C121.125 129.162 121.425 129.487 121.808 129.711C122.192 129.931 122.638 130.041 123.145 130.041C123.476 130.041 123.774 129.995 124.04 129.903C124.31 129.807 124.543 129.665 124.738 129.477C124.933 129.285 125.084 129.047 125.191 128.763L126.405 129.104C126.278 129.516 126.063 129.878 125.761 130.19C125.459 130.499 125.086 130.741 124.642 130.915C124.198 131.085 123.699 131.17 123.145 131.17ZM127.714 131L131.038 126.845L127.757 122.818H129.248L131.976 126.312H132.658V122.818H133.915V126.312H134.575L137.302 122.818H138.794L135.534 126.845L138.837 131H137.324L134.554 127.484H133.915V131H132.658V127.484H132.018L129.227 131H127.714ZM141.89 129.146L145.832 122.818H147.281V131H146.024V124.672L142.103 131H140.633V122.818H141.89V129.146ZM154.058 129.295L156.913 122.818H158.106L154.569 131H153.546L150.073 122.818H151.245L154.058 129.295ZM150.84 122.818V131H149.583V122.818H150.84ZM157.275 131V122.818H158.532V131H157.275ZM164.264 131.17C163.475 131.17 162.795 130.996 162.223 130.648C161.655 130.297 161.217 129.807 160.908 129.178C160.602 128.546 160.45 127.811 160.45 126.973C160.45 126.135 160.602 125.396 160.908 124.757C161.217 124.114 161.646 123.614 162.197 123.255C162.751 122.893 163.397 122.712 164.136 122.712C164.562 122.712 164.983 122.783 165.398 122.925C165.814 123.067 166.192 123.298 166.533 123.617C166.874 123.933 167.145 124.352 167.348 124.874C167.55 125.396 167.651 126.039 167.651 126.803V127.335H161.345V126.249H166.373C166.373 125.787 166.281 125.375 166.096 125.013C165.915 124.651 165.656 124.365 165.318 124.155C164.984 123.946 164.59 123.841 164.136 123.841C163.635 123.841 163.202 123.965 162.836 124.214C162.474 124.459 162.195 124.778 162 125.173C161.804 125.567 161.707 125.989 161.707 126.44V127.165C161.707 127.783 161.813 128.306 162.026 128.736C162.243 129.162 162.543 129.487 162.927 129.711C163.31 129.931 163.756 130.041 164.264 130.041C164.594 130.041 164.892 129.995 165.158 129.903C165.428 129.807 165.661 129.665 165.856 129.477C166.052 129.285 166.203 129.047 166.309 128.763L167.524 129.104C167.396 129.516 167.181 129.878 166.879 130.19C166.577 130.499 166.204 130.741 165.76 130.915C165.316 131.085 164.818 131.17 164.264 131.17Z" fill="white"/>
</svg>
