<svg width="56" height="116" viewBox="0 0 56 116" fill="none" xmlns="http://www.w3.org/2000/svg">
<path d="M42.5503 81.1L55.6103 88.03L55.6003 79.2301C55.6003 78.0001 55.3603 76.91 54.9103 76.06L49.2603 65.3501C48.0403 63.0401 45.4203 62.64 42.5303 64.31L42.5503 81.1Z" fill="url(#paint0_linear_108_12517)"/>
<path d="M13.05 81.14L0.00999451 88.11L0 79.31C0 78.08 0.229993 76.99 0.679993 76.13L6.29999 65.4C7.50999 63.09 10.13 62.68 13.02 64.34L13.05 81.14Z" fill="url(#paint1_linear_108_12517)"/>
<path d="M34.0391 100.54L21.6191 100.56V102.31C21.6191 102.33 21.6191 102.34 21.6191 102.36C21.6191 104.36 24.4091 105.97 27.8391 105.97C31.2691 105.97 34.0491 104.34 34.0491 102.34C34.0491 102.32 34.0491 102.31 34.0491 102.29L34.0391 100.54Z" fill="url(#paint2_linear_108_12517)"/>
<path d="M42.6497 84.99L12.9697 85.03L12.9797 93.85H12.9897C12.9897 93.89 12.9797 93.93 12.9797 93.97C12.9897 98.74 19.6397 102.6 27.8297 102.59C36.0197 102.58 42.6597 98.7 42.6497 93.93C42.6497 93.89 42.6497 93.85 42.6397 93.81H42.6497V84.99Z" fill="url(#paint3_linear_108_12517)"/>
<path opacity="0.5" d="M42.6497 85.3L12.9697 85.34L12.9797 92.37H12.9897C12.9897 92.4 12.9797 92.43 12.9797 92.47C12.9897 96.27 19.6297 99.35 27.8297 99.34C36.0197 99.33 42.6597 96.23 42.6597 92.43C42.6597 92.4 42.6597 92.37 42.6497 92.33H42.6597L42.6497 85.3Z" fill="#AFB6E5"/>
<path d="M50.9595 55.79C52.4496 43.21 49.5096 30.42 42.3096 20.01C42.0096 19.57 41.6995 19.14 41.3795 18.71L27.6796 0L14.0296 18.75C13.7196 19.18 13.4096 19.61 13.1096 20.05C5.92956 30.49 3.03956 43.28 4.55956 55.86L8.08956 85.06H8.09955C8.09955 85.11 8.08956 85.17 8.08956 85.22C8.09956 91.56 16.9296 96.68 27.8096 96.67C38.6896 96.65 47.5096 91.5 47.4996 85.17C47.4996 85.12 47.4895 85.06 47.4895 85.01H47.4996L50.9595 55.79Z" fill="url(#paint4_linear_108_12517)"/>
<path d="M41.3796 18.71L27.6796 0L14.0296 18.75C13.9496 18.86 13.8796 18.96 13.8096 19.07C16.1796 22.17 21.5096 24.32 27.7196 24.31C33.9196 24.3 39.2496 22.13 41.6096 19.03C41.5296 18.92 41.4596 18.81 41.3796 18.71Z" fill="url(#paint5_linear_108_12517)"/>
<path opacity="0.3" d="M41.3796 18.71L27.6796 0L14.0296 18.75C13.9496 18.86 13.8796 18.96 13.8096 19.07C16.1796 22.17 21.5096 24.32 27.7196 24.31C33.9196 24.3 39.2496 22.13 41.6096 19.03C41.5296 18.92 41.4596 18.81 41.3796 18.71Z" fill="url(#paint6_linear_108_12517)"/>
<path opacity="0.5" d="M50.9595 55.79C52.4496 43.21 49.5096 30.42 42.3096 20.01C42.0096 19.57 41.6995 19.14 41.3795 18.71L27.6796 0L14.0296 18.75C13.7196 19.18 13.4096 19.61 13.1096 20.05C5.92956 30.49 3.03956 43.28 4.55956 55.86L8.08956 85.06H8.09955C8.09955 85.11 8.08956 85.17 8.08956 85.22C8.09956 91.56 16.9296 96.68 27.8096 96.67C38.6896 96.65 47.5096 91.5 47.4996 85.17C47.4996 85.12 47.4895 85.06 47.4895 85.01H47.4996L50.9595 55.79Z" fill="url(#paint7_radial_108_12517)"/>
<path d="M24.789 63.5899C24.789 66.3099 23.859 68.2399 22.329 69.1799C22.279 69.2099 20.859 70.1099 20.819 70.1399C19.229 71.0299 20.249 69.0099 17.829 67.6199C12.969 64.8199 9.01899 58.0299 9.00899 52.4599C9.00899 49.6999 6.45898 49.6799 8.01898 48.7599C8.05898 48.7299 9.78898 47.7799 9.82898 47.7599C11.409 46.8999 13.579 47.0499 15.969 48.4299C20.829 51.2199 24.779 58.0099 24.789 63.5899Z" fill="url(#paint8_linear_108_12517)"/>
<path d="M23.0592 64.62C23.0692 70.2 19.1292 72.4499 14.2692 69.65C9.40923 66.85 5.45924 60.06 5.44924 54.49C5.43924 48.91 9.37923 46.66 14.2392 49.46C19.0992 52.25 23.0492 59.04 23.0592 64.62Z" fill="url(#paint9_linear_108_12517)"/>
<path d="M21.3996 63.67C21.4096 68.2 18.2096 70.03 14.2596 67.75C10.3096 65.48 7.09963 59.96 7.09963 55.44C7.08963 50.91 10.2896 49.08 14.2396 51.36C18.1896 53.62 21.3896 59.14 21.3996 63.67Z" fill="url(#paint10_linear_108_12517)"/>
<path d="M15.6696 67.1599C11.7196 64.8899 8.50961 59.3699 8.50961 54.8499C8.50961 52.7599 9.18961 51.25 10.2996 50.45C8.36961 50.81 7.09961 52.5899 7.09961 55.4399C7.10961 59.9699 10.3096 65.4799 14.2596 67.7499C16.3896 68.9799 18.2996 69.0099 19.6096 68.0699C18.4796 68.2799 17.1196 67.9999 15.6696 67.1599Z" fill="url(#paint11_linear_108_12517)"/>
<path d="M13.2102 93.2L2.85023 113.1L0.750244 111.86L0.740234 103.44C0.740234 102.26 0.960244 100.96 1.39024 99.64L6.76024 83.1499C7.92024 79.5999 10.4202 76.3 13.1802 74.7L15.2002 75.92L13.2102 93.2Z" fill="url(#paint12_linear_108_12517)"/>
<path d="M15.3098 94.4399L2.84984 113.1L2.83984 104.68C2.83984 103.5 3.05984 102.2 3.48984 100.88L8.85985 84.39C10.0198 80.84 12.5198 77.5399 15.2798 75.9399L15.3098 94.4399Z" fill="url(#paint13_linear_108_12517)"/>
<path d="M42.4299 93.1599L52.8399 113.03L54.9399 111.79L54.9299 103.37C54.9299 102.19 54.6999 100.89 54.2699 99.5699L48.8499 83.0899C47.6799 79.5399 45.1699 76.2499 42.3999 74.6599L40.3799 75.8799L42.4299 93.1599Z" fill="url(#paint14_linear_108_12517)"/>
<path d="M40.3298 94.3999L52.8398 113.03L52.8298 104.61C52.8298 103.43 52.5998 102.13 52.1698 100.81L46.7498 84.3299C45.5798 80.7799 43.0698 77.4899 40.2998 75.8999L40.3298 94.3999Z" fill="url(#paint15_linear_108_12517)"/>
<defs>
<linearGradient id="paint0_linear_108_12517" x1="59.8112" y1="89.8753" x2="39.3412" y2="65.2483" gradientUnits="userSpaceOnUse">
<stop offset="0.00505051" stop-color="#F36D7E"/>
<stop offset="0.4343" stop-color="#5277AB"/>
<stop offset="1" stop-color="#61C2E4"/>
</linearGradient>
<linearGradient id="paint1_linear_108_12517" x1="28.1788" y1="80.8543" x2="-14.4798" y2="71.3587" gradientUnits="userSpaceOnUse">
<stop offset="0.00505051" stop-color="#F36D7E"/>
<stop offset="0.4343" stop-color="#5277AB"/>
<stop offset="1" stop-color="#61C2E4"/>
</linearGradient>
<linearGradient id="paint2_linear_108_12517" x1="27.8499" y1="97.8469" x2="27.8018" y2="107.112" gradientUnits="userSpaceOnUse">
<stop offset="0.00505051" stop-color="#273B60"/>
<stop offset="0.0714" stop-color="#37375F"/>
<stop offset="0.2008" stop-color="#602E5D"/>
<stop offset="0.379" stop-color="#A21E5A"/>
<stop offset="0.399" stop-color="#AA1C5A"/>
<stop offset="0.8712" stop-color="#870647"/>
<stop offset="1" stop-color="#7C0042"/>
</linearGradient>
<linearGradient id="paint3_linear_108_12517" x1="13.1244" y1="93.8196" x2="42.3302" y2="93.7758" gradientUnits="userSpaceOnUse">
<stop stop-color="#906FAE"/>
<stop offset="0.0495" stop-color="#987DB8"/>
<stop offset="0.1061" stop-color="#A592C8"/>
<stop offset="0.2273" stop-color="#AFB6E5"/>
<stop offset="0.3489" stop-color="#B19BCF"/>
<stop offset="0.3788" stop-color="#B194C9"/>
<stop offset="0.5455" stop-color="#9B67A8"/>
<stop offset="0.6133" stop-color="#9D6AAB"/>
<stop offset="0.6723" stop-color="#A375B2"/>
<stop offset="0.7278" stop-color="#AE87C0"/>
<stop offset="0.7778" stop-color="#BB9ED1"/>
<stop offset="1" stop-color="#B079B5"/>
</linearGradient>
<linearGradient id="paint4_linear_108_12517" x1="4.3953" y1="48.3674" x2="50.8156" y2="48.2978" gradientUnits="userSpaceOnUse">
<stop offset="0.0101" stop-color="#CED3F4"/>
<stop offset="0.0661" stop-color="#D8DCF6"/>
<stop offset="0.1615" stop-color="#F3F4FC"/>
<stop offset="0.197" stop-color="white"/>
<stop offset="0.2734" stop-color="#F5F7FF"/>
<stop offset="0.3586" stop-color="#E5E9FF"/>
<stop offset="0.3876" stop-color="#DBDFFA"/>
<stop offset="0.4705" stop-color="#C3C9EE"/>
<stop offset="0.5472" stop-color="#B4BBE7"/>
<stop offset="0.6111" stop-color="#AFB6E5"/>
<stop offset="0.7831" stop-color="#BAC0EA"/>
<stop offset="1" stop-color="#CED3F4"/>
</linearGradient>
<linearGradient id="paint5_linear_108_12517" x1="18.7991" y1="9.52972" x2="43.2866" y2="19.4059" gradientUnits="userSpaceOnUse">
<stop stop-color="#5277AB"/>
<stop offset="0.0486" stop-color="#557EB2"/>
<stop offset="0.121" stop-color="#5C93C5"/>
<stop offset="0.1919" stop-color="#66ADDE"/>
<stop offset="0.3434" stop-color="#5277AB"/>
<stop offset="0.4056" stop-color="#547BAE"/>
<stop offset="0.7639" stop-color="#5E90BF"/>
<stop offset="1" stop-color="#6198C5"/>
</linearGradient>
<linearGradient id="paint6_linear_108_12517" x1="38.4377" y1="8.23606" x2="6.8565" y2="23.7566" gradientUnits="userSpaceOnUse">
<stop stop-color="#5277AB"/>
<stop offset="0.0486" stop-color="#557EB2"/>
<stop offset="0.121" stop-color="#5C93C5"/>
<stop offset="0.1919" stop-color="#66ADDE"/>
<stop offset="0.3434" stop-color="#5277AB"/>
<stop offset="0.3502" stop-color="#5378AC"/>
<stop offset="0.4865" stop-color="#5B90C2"/>
<stop offset="0.6321" stop-color="#61A0D2"/>
<stop offset="0.7935" stop-color="#65AADB"/>
<stop offset="1" stop-color="#66ADDE"/>
</linearGradient>
<radialGradient id="paint7_radial_108_12517" cx="0" cy="0" r="1" gradientUnits="userSpaceOnUse" gradientTransform="translate(27.754 48.3327) rotate(-0.0859436) scale(32.9381 52.701)">
<stop offset="0.5253" stop-color="white"/>
<stop offset="0.7086" stop-color="#FAFBFF"/>
<stop offset="0.9208" stop-color="#ECEFFF"/>
<stop offset="1" stop-color="#E5E9FF"/>
</radialGradient>
<linearGradient id="paint8_linear_108_12517" x1="10.583" y1="47.1237" x2="23.2351" y2="68.9621" gradientUnits="userSpaceOnUse">
<stop stop-color="#906FAE"/>
<stop offset="0.0495" stop-color="#987DB8"/>
<stop offset="0.1061" stop-color="#A592C8"/>
<stop offset="0.2273" stop-color="#AFB6E5"/>
<stop offset="0.3489" stop-color="#B19BCF"/>
<stop offset="0.3788" stop-color="#B194C9"/>
<stop offset="0.5455" stop-color="#9B67A8"/>
<stop offset="0.6133" stop-color="#9D6AAB"/>
<stop offset="0.6723" stop-color="#A375B2"/>
<stop offset="0.7278" stop-color="#AE87C0"/>
<stop offset="0.7778" stop-color="#BB9ED1"/>
<stop offset="1" stop-color="#B079B5"/>
</linearGradient>
<linearGradient id="paint9_linear_108_12517" x1="5.44968" y1="59.5644" x2="23.0482" y2="59.538" gradientUnits="userSpaceOnUse">
<stop offset="0.0354" stop-color="#BB9AD6"/>
<stop offset="0.3636" stop-color="#AFB6E5"/>
<stop offset="0.6238" stop-color="#A89BD3"/>
<stop offset="1" stop-color="#9C6EB5"/>
</linearGradient>
<linearGradient id="paint10_linear_108_12517" x1="7.80133" y1="55.9438" x2="22.9167" y2="64.4003" gradientUnits="userSpaceOnUse">
<stop offset="0.096" stop-color="#A1243E"/>
<stop offset="1" stop-color="#E71D69"/>
</linearGradient>
<linearGradient id="paint11_linear_108_12517" x1="17.2402" y1="69.3719" x2="7.25984" y2="52.1453" gradientUnits="userSpaceOnUse">
<stop stop-color="#906FAE"/>
<stop offset="0.0495" stop-color="#987DB8"/>
<stop offset="0.1061" stop-color="#A592C8"/>
<stop offset="0.2273" stop-color="#AFB6E5"/>
<stop offset="0.3489" stop-color="#B19BCF"/>
<stop offset="0.3788" stop-color="#B194C9"/>
<stop offset="0.5455" stop-color="#9B67A8"/>
<stop offset="0.6133" stop-color="#9D6AAB"/>
<stop offset="0.6723" stop-color="#A375B2"/>
<stop offset="0.7278" stop-color="#AE87C0"/>
<stop offset="0.7778" stop-color="#BB9ED1"/>
<stop offset="1" stop-color="#B079B5"/>
</linearGradient>
<linearGradient id="paint12_linear_108_12517" x1="3.23881" y1="108.927" x2="15.2935" y2="71.8445" gradientUnits="userSpaceOnUse">
<stop stop-color="#46668D"/>
<stop offset="0.377" stop-color="#4F73A5"/>
<stop offset="0.4646" stop-color="#5277AB"/>
<stop offset="0.515" stop-color="#547DB0"/>
<stop offset="0.5809" stop-color="#5A8DC0"/>
<stop offset="0.655" stop-color="#64A8D9"/>
<stop offset="0.6667" stop-color="#66ADDE"/>
<stop offset="0.803" stop-color="#5277AB"/>
</linearGradient>
<linearGradient id="paint13_linear_108_12517" x1="-5.13826" y1="105.616" x2="30.5282" y2="77.6164" gradientUnits="userSpaceOnUse">
<stop offset="0.00505051" stop-color="#F36D7E"/>
<stop offset="0.4343" stop-color="#5277AB"/>
<stop offset="1" stop-color="#61C2E4"/>
</linearGradient>
<linearGradient id="paint14_linear_108_12517" x1="48.699" y1="97.1359" x2="42.0641" y2="77.6043" gradientUnits="userSpaceOnUse">
<stop stop-color="#46668D"/>
<stop offset="0.377" stop-color="#4F73A5"/>
<stop offset="0.4646" stop-color="#5277AB"/>
<stop offset="0.515" stop-color="#547DB0"/>
<stop offset="0.5809" stop-color="#5A8DC0"/>
<stop offset="0.655" stop-color="#64A8D9"/>
<stop offset="0.6667" stop-color="#66ADDE"/>
<stop offset="0.803" stop-color="#5277AB"/>
</linearGradient>
<linearGradient id="paint15_linear_108_12517" x1="57.1874" y1="114.625" x2="32.4863" y2="68.4517" gradientUnits="userSpaceOnUse">
<stop offset="0.00505051" stop-color="#F36D7E"/>
<stop offset="0.4343" stop-color="#5277AB"/>
<stop offset="1" stop-color="#61C2E4"/>
</linearGradient>
</defs>
</svg>
